<svg width="24" height="24" viewBox="0 0 24 24" fill="none" xmlns="http://www.w3.org/2000/svg">
<circle cx="12" cy="12" r="12" fill="#372F20"/>
<path d="M12.3307 11.3333C13.8035 11.3333 14.9974 10.1394 14.9974 8.66667C14.9974 7.19391 13.8035 6 12.3307 6C10.858 6 9.66406 7.19391 9.66406 8.66667C9.66406 10.1394 10.858 11.3333 12.3307 11.3333Z" stroke="#FBAF17" stroke-width="1.33" stroke-linecap="round" stroke-linejoin="round"/>
<path d="M17.6667 18V16.6667C17.6667 15.9594 17.3857 15.2811 16.8856 14.781C16.3855 14.281 15.7072 14 15 14H9.66667C8.95942 14 8.28115 14.281 7.78105 14.781C7.28095 15.2811 7 15.9594 7 16.6667V18" stroke="#FBAF17" stroke-width="1.33" stroke-linecap="round" stroke-linejoin="round"/>
</svg>
