<svg width="24" height="24" viewBox="0 0 24 24" fill="none" xmlns="http://www.w3.org/2000/svg">
<g clip-path="url(#clip0_6803_76021)">
<circle cx="12" cy="12" r="12" fill="#372F20"/>
<path d="M10.6016 12.7059C10.9042 13.1105 11.2904 13.4453 11.7338 13.6876C12.1773 13.9299 12.6677 14.0739 13.1717 14.11C13.6757 14.1461 14.1816 14.0734 14.6551 13.8968C15.1285 13.7202 15.5584 13.4438 15.9157 13.0865L18.0301 10.9721C18.672 10.3075 19.0272 9.4173 19.0191 8.49333C19.0111 7.56936 18.6405 6.68551 17.9871 6.03214C17.3338 5.37877 16.4499 5.00816 15.5259 5.00013C14.602 4.9921 13.7118 5.3473 13.0472 5.98921L11.8349 7.19441" stroke="#FBAF17" stroke-width="1.33" stroke-linecap="round" stroke-linejoin="round"/>
<path d="M13.4177 11.296C13.115 10.8914 12.7289 10.5565 12.2854 10.3143C11.842 10.072 11.3516 9.92791 10.8476 9.89182C10.3436 9.85572 9.83766 9.92844 9.36421 10.1051C8.89076 10.2817 8.46083 10.558 8.10359 10.9154L5.98921 13.0298C5.3473 13.6944 4.9921 14.5846 5.00013 15.5085C5.00816 16.4325 5.37877 17.3163 6.03214 17.9697C6.68551 18.6231 7.56936 18.9937 8.49333 19.0017C9.4173 19.0098 10.3075 18.6546 10.9721 18.0126L12.1773 16.8075" stroke="#FBAF17" stroke-width="1.33" stroke-linecap="round" stroke-linejoin="round"/>
</g>
<defs>
<clipPath id="clip0_6803_76021">
<rect width="24" height="24" fill="white"/>
</clipPath>
</defs>
</svg>
