<svg width="24" height="24" viewBox="0 0 24 24" fill="none" xmlns="http://www.w3.org/2000/svg">
<g clip-path="url(#clip0_6803_39102)">
<circle cx="12" cy="12" r="12" fill="#372F20"/>
<path d="M15.6667 18V16.6667C15.6667 15.9594 15.3857 15.2811 14.8856 14.781C14.3855 14.281 13.7072 14 13 14H7.66667C6.95942 14 6.28115 14.281 5.78105 14.781C5.28095 15.2811 5 15.9594 5 16.6667V18" stroke="#FBAF17" stroke-width="1.33" stroke-linecap="round" stroke-linejoin="round"/>
<path d="M10.3307 11.3333C11.8035 11.3333 12.9974 10.1394 12.9974 8.66667C12.9974 7.19391 11.8035 6 10.3307 6C8.85797 6 7.66406 7.19391 7.66406 8.66667C7.66406 10.1394 8.85797 11.3333 10.3307 11.3333Z" stroke="#FBAF17" stroke-width="1.33" stroke-linecap="round" stroke-linejoin="round"/>
<path d="M19.6641 17.9993V16.6659C19.6636 16.0751 19.467 15.5011 19.105 15.0341C18.743 14.5672 18.2361 14.2336 17.6641 14.0859" stroke="#FBAF17" stroke-width="1.33" stroke-linecap="round" stroke-linejoin="round"/>
<path d="M15 6.08594C15.5736 6.2328 16.082 6.5664 16.4451 7.03414C16.8082 7.50188 17.0052 8.07716 17.0052 8.66927C17.0052 9.26138 16.8082 9.83666 16.4451 10.3044C16.082 10.7721 15.5736 11.1057 15 11.2526" stroke="#FBAF17" stroke-width="1.33" stroke-linecap="round" stroke-linejoin="round"/>
</g>
<defs>
<clipPath id="clip0_6803_39102">
<rect width="24" height="24" fill="white"/>
</clipPath>
</defs>
</svg>
