<svg width="240" height="88" viewBox="0 0 240 88" fill="none" xmlns="http://www.w3.org/2000/svg">
<path fill-rule="evenodd" clip-rule="evenodd" d="M60.4799 79.4698H147.84C148.334 79.4698 148.816 79.4166 149.28 79.3154C149.744 79.4166 150.226 79.4698 150.72 79.4698H200.64C204.351 79.4698 207.36 76.4652 207.36 72.7587C207.36 69.0523 204.351 66.0476 200.64 66.0476H194.88C191.169 66.0476 188.16 63.043 188.16 59.3365C188.16 55.6301 191.169 52.6254 194.88 52.6254H213.12C216.831 52.6254 219.84 49.6207 219.84 45.9143C219.84 42.2078 216.831 39.2032 213.12 39.2032H192C195.711 39.2032 198.72 36.1985 198.72 32.4921C198.72 28.7856 195.711 25.781 192 25.781H130.56C134.271 25.781 137.28 22.7763 137.28 19.0698C137.28 15.3634 134.271 12.3587 130.56 12.3587H75.8399C72.1286 12.3587 69.1199 15.3634 69.1199 19.0698C69.1199 22.7763 72.1286 25.781 75.8399 25.781H37.4399C33.7286 25.781 30.7199 28.7856 30.7199 32.4921C30.7199 36.1985 33.7286 39.2032 37.4399 39.2032H61.4399C65.1513 39.2032 68.1599 42.2078 68.1599 45.9143C68.1599 49.6207 65.1513 52.6254 61.4399 52.6254H23.0399C19.3286 52.6254 16.3199 55.6301 16.3199 59.3365C16.3199 63.043 19.3286 66.0476 23.0399 66.0476H60.4799C56.7686 66.0476 53.7599 69.0523 53.7599 72.7587C53.7599 76.4652 56.7686 79.4698 60.4799 79.4698ZM216.96 79.4698C220.671 79.4698 223.68 76.4652 223.68 72.7587C223.68 69.0523 220.671 66.0476 216.96 66.0476C213.249 66.0476 210.24 69.0523 210.24 72.7587C210.24 76.4652 213.249 79.4698 216.96 79.4698Z" fill="#252525"/>
<path fill-rule="evenodd" clip-rule="evenodd" d="M108.594 58.6718C108.519 59.2022 108.48 59.7442 108.48 60.2953C108.48 66.6492 113.638 71.8 120 71.8C126.362 71.8 131.52 66.6492 131.52 60.2953C131.52 59.7442 131.481 59.2022 131.406 58.6718H159.36V84.2635C159.36 85.852 158.071 87.1397 156.48 87.1397H83.52C81.9294 87.1397 80.64 85.852 80.64 84.2635V58.6718H108.594Z" fill="#151515"/>
<path fill-rule="evenodd" clip-rule="evenodd" d="M132.48 58.3778C132.48 65.2612 126.893 70.8413 120 70.8413C113.108 70.8413 107.52 65.2612 107.52 58.3778C107.52 58.1548 107.526 57.9331 107.537 57.713H80.64L89.818 30.6119C90.2137 29.4435 91.3112 28.6571 92.5462 28.6571H147.454C148.689 28.6571 149.786 29.4435 150.182 30.6119L159.36 57.713H132.463C132.474 57.9331 132.48 58.1548 132.48 58.3778Z" fill="#151515"/>
<path fill-rule="evenodd" clip-rule="evenodd" d="M130.654 59.2929C130.654 64.6119 125.884 69.8825 120 69.8825C114.116 69.8825 109.346 64.6119 109.346 59.2929C109.346 59.1206 109.351 57.9906 109.361 57.8205H89.28L97.1149 38.7962C97.4527 37.8934 98.3896 37.2857 99.4439 37.2857H140.556C141.61 37.2857 142.547 37.8934 142.885 38.7962L150.72 57.8205H130.639C130.649 57.9906 130.654 59.1206 130.654 59.2929Z" fill="#252525"/>
<path fill-rule="evenodd" clip-rule="evenodd" d="M81.84 57.9102V83.3048C81.84 84.2314 82.5921 84.9825 83.52 84.9825H156.48C157.408 84.9825 158.16 84.2314 158.16 83.3048V57.9102L149.045 30.9958C148.814 30.3143 148.174 29.8556 147.454 29.8556H92.5462C91.8258 29.8556 91.1855 30.3143 90.9547 30.9958L81.84 57.9102Z" stroke="#FBAF17" stroke-width="2.5"/>
<path d="M94.08 57.4191C97.8591 57.4191 101.938 57.4191 106.315 57.4191C108.116 57.4191 108.116 58.6832 108.116 59.3365C108.116 65.6904 113.393 70.8413 119.901 70.8413C126.41 70.8413 131.686 65.6904 131.686 59.3365C131.686 58.6832 131.686 57.4191 133.488 57.4191H157.44M86.9508 57.4191H89.28H86.9508Z" stroke="#FBAF17" stroke-width="2.5" stroke-linecap="round" stroke-linejoin="round"/>
<path d="M144.096 6.89659L133.44 18.8358M119.136 2.77143V18.8358V2.77143ZM94.08 6.89659L104.736 18.8358L94.08 6.89659Z" stroke="#FBAF17" stroke-width="2.5" stroke-linecap="round" stroke-linejoin="round"/>
</svg>
