<svg width="24" height="24" viewBox="0 0 24 24" fill="none" xmlns="http://www.w3.org/2000/svg">
<path d="M3.85977 17.5991L3.8598 17.599L3.85778 17.5937C3.62746 16.9821 3.6984 16.2919 4.08762 15.6488L4.08822 15.6478L5.23822 13.7378L5.23862 13.7372C5.39138 13.4826 5.52098 13.1343 5.61193 12.8039C5.70297 12.4732 5.76987 12.1075 5.76987 11.8099V8.91992C5.76987 5.47606 8.57601 2.66992 12.0199 2.66992C15.4637 2.66992 18.2699 5.47606 18.2699 8.91992V11.8099C18.2699 12.1029 18.3369 12.4686 18.4275 12.8004C18.5183 13.1327 18.6473 13.4844 18.7984 13.7425L18.7983 13.7425L18.8011 13.7472L19.9406 15.6463C19.9407 15.6465 19.9409 15.6467 19.941 15.6469C20.2928 16.2365 20.3587 16.9486 20.1205 17.5976C19.8838 18.2424 19.3703 18.7321 18.7236 18.945L18.7205 18.946C16.5735 19.6682 14.2974 20.0299 12.0199 20.0299C9.74322 20.0299 7.4677 19.6685 5.31083 18.9465C4.59563 18.699 4.08156 18.209 3.85977 17.5991ZM4.52152 15.902L4.52151 15.902L4.5201 15.9044C4.24687 16.3639 4.13382 16.9141 4.33138 17.4248C4.51705 17.9411 4.95765 18.2887 5.46829 18.4631L5.47108 18.464C9.7539 19.8985 14.2951 19.8986 18.578 18.4643C19.0817 18.2964 19.4776 17.9151 19.6601 17.4097C19.8387 16.9154 19.7999 16.367 19.5176 15.901C19.5176 15.9009 19.5175 15.9008 19.5175 15.9008L18.37 13.9949C18.0349 13.4201 17.7699 12.4391 17.7699 11.7999V8.91992C17.7699 5.74378 15.196 3.16992 12.0199 3.16992C8.85435 3.16992 6.26987 5.74316 6.26987 8.91992V11.8099C6.26987 12.4477 5.99557 13.4388 5.67004 13.9945L4.52152 15.902Z" fill="#98A2B3" stroke="#98A2B3"/>
<path d="M13.807 3.42941L13.807 3.42939L13.8026 3.42818C13.4949 3.34331 13.1949 3.27884 12.9029 3.23557L12.9029 3.23549L12.8938 3.23431C11.9793 3.11597 11.0884 3.17963 10.2465 3.43109L10.2465 3.43099L10.2366 3.43416C10.152 3.46135 10.0546 3.43566 9.99039 3.36472C9.92459 3.29199 9.90776 3.19451 9.94267 3.10882L9.94272 3.10884L9.94538 3.10204C10.2808 2.24315 11.0964 1.68018 12.0296 1.68018C12.9637 1.68018 13.7761 2.2334 14.1118 3.09661C14.1494 3.20101 14.1258 3.29918 14.0718 3.36143C14.0236 3.41087 13.9509 3.44018 13.8796 3.44018C13.8579 3.44018 13.8341 3.43716 13.807 3.42941Z" stroke="#98A2B3"/>
<path d="M12.0195 22.3101C11.1629 22.3101 10.3299 21.9633 9.72308 21.3565C9.23535 20.8688 8.91563 20.2349 8.80893 19.5601H9.31623C9.41784 20.1017 9.68197 20.6096 10.076 21.0036C10.5895 21.5171 11.2966 21.8101 12.0195 21.8101C13.365 21.8101 14.4881 20.8384 14.724 19.5601H15.2312C14.9905 21.1169 13.6434 22.3101 12.0195 22.3101Z" fill="#98A2B3" stroke="#98A2B3"/>
</svg>
