<svg width="110" height="15" viewBox="0 0 110 15" fill="none" xmlns="http://www.w3.org/2000/svg">
<path d="M20.7642 7.69739L20.5809 7.58195C19.9584 6.96209 19.0919 6.69267 17.933 6.76029C16.9681 6.81945 16.2031 7.20039 15.6188 7.55536C15.6188 7.5465 15.6177 7.53846 15.6177 7.52939C15.6177 7.2276 15.6525 6.90108 15.6857 6.58363C15.72 6.26081 15.7543 5.93244 15.7543 5.62199C15.7543 5.30454 15.7184 5.00461 15.6087 4.74756C15.5812 4.68077 15.5208 4.64181 15.444 4.64181C15.1312 4.64902 14.5229 4.86217 14.3756 4.9908L14.2952 5.16622C14.2893 5.50985 14.2145 6.47211 14.138 6.58816C14.1409 6.58466 14.0961 6.70483 14.0961 6.70483C13.9651 8.07874 13.9626 9.28568 14.0843 10.3221C14.0973 10.4258 14.2975 10.5821 14.4519 10.6386C14.6204 10.7006 15.151 10.559 15.4566 10.4438C15.4533 10.4448 15.5723 10.4262 15.5723 10.4262C15.6692 10.4155 15.7262 10.3345 15.7206 10.2246C15.72 10.2226 15.7275 9.92636 15.7275 9.92636C15.9491 9.03131 16.8425 7.96413 17.8985 7.80376C18.4952 7.70934 18.9669 7.86086 19.3398 8.26757C19.39 8.33971 19.4989 8.98348 19.1053 9.72331C18.8123 10.271 18.2258 10.7326 17.4553 11.0216C16.7252 11.2976 15.9221 11.4101 14.9308 11.3753C14.8903 11.3487 14.0021 10.7495 14.0021 10.7495C13.2172 10.1989 12.2405 9.51346 11.3536 9.17787C11.1994 9.11892 10.9195 8.88742 10.7523 8.74931L10.661 8.67407C10.1498 8.26592 9.17838 7.61967 8.39719 7.10041C8.39719 7.10041 8.04472 6.865 7.97612 6.81945C7.97695 6.78976 7.97881 6.73143 7.97881 6.73143C8.0005 6.7069 8.49078 6.41336 8.49078 6.41336C9.17734 6.01242 9.4949 5.81597 9.56246 5.71393C9.54862 5.73022 9.6542 5.66033 9.6542 5.66033C9.65936 5.65765 11.356 4.69973 11.356 4.69973C12.9895 3.80303 14.8413 2.78718 15.8138 1.78226L15.8607 1.62931L15.8824 1.49202C15.946 1.27784 15.9504 1.11273 15.8971 0.922049C15.8824 0.867216 15.832 0.804344 15.7648 0.79177C15.006 0.717354 14.0262 1.17147 13.1351 2.00489C12.9339 2.19392 12.7649 2.28565 12.5862 2.38315L12.45 2.45819C11.4668 3.01538 9.25255 4.38661 8.0943 5.12644C8.17033 3.88281 8.40091 2.11456 8.68458 0.639846L8.65297 0.463803C8.64925 0.457619 8.53314 0.240969 8.53314 0.240969L8.44264 0.0807991L8.4164 0.0739975C8.18542 -0.0428829 7.99637 0.00514698 7.85815 0.0401907L7.62571 0.125326L7.31787 0.237052C7.25712 0.249008 7.21291 0.286113 7.18915 0.345687C6.63606 1.68043 6.17429 3.87559 6.06561 5.63189C4.95902 4.92916 3.9363 4.42536 3.43611 4.18088L3.42102 4.17346L3.36069 4.16047C3.18156 4.13739 2.96132 4.00484 2.74851 3.87683C2.72765 3.86364 2.3291 3.60514 2.3291 3.60514L1.68551 3.19431C1.6915 3.19822 1.51671 3.15617 1.51671 3.15617C1.24006 3.20317 0.710527 3.55855 0.553504 3.80076C0.532017 3.83272 0.524373 3.86797 0.524373 3.90404C0.524373 3.95413 0.539868 4.00628 0.553504 4.05534L0.582016 4.18645L0.611767 4.26478C0.919821 4.57997 1.69688 5.10582 2.45967 5.51439L3.34313 5.9815L4.69559 6.71865C4.6958 6.72483 4.92741 6.90108 4.92741 6.90108L5.0865 6.99302C5.0865 6.99302 5.10344 7.00353 5.11418 7.01095C4.75385 7.25089 2.65513 8.64995 2.65513 8.64995L1.36072 9.50481C1.23903 9.5885 0.727056 9.8169 0.615694 9.86122C0.3345 9.97521 0.122726 10.1502 0.0342971 10.3409L0 10.4147L0.0347101 10.4642L0.132849 10.5392C0.12913 10.5384 0.266112 10.6258 0.266112 10.6258L0.408671 10.7233C0.411563 10.7247 0.543173 10.7433 0.543173 10.7433C0.770649 10.7526 1.10784 10.6233 1.73758 10.3483C2.31526 10.0925 3.88672 9.14736 4.5584 8.74374L4.84497 8.57183C4.96336 8.58151 5.09476 8.48195 5.21005 8.39413C5.34496 8.28674 5.63876 8.1074 5.81727 8.02886C5.82161 8.027 5.92471 7.9699 6.01913 7.91713C6.0183 7.94764 6.01768 7.99423 6.01768 7.99423C6.04805 10.0441 6.16644 11.5338 6.3904 12.6824L6.39453 12.7028L6.41623 12.7488C6.52697 12.9116 6.65321 13.3971 6.76436 13.8257L7.02014 14.6811C7.0251 14.6906 7.09287 14.7611 7.09287 14.7611C7.23874 14.8596 7.68315 15.0305 7.98087 14.9953L8.05505 14.9868L8.10236 14.8825C8.12715 14.7543 8.13624 14.6286 8.13624 14.4905C8.13624 14.3338 8.12467 14.1615 8.11062 13.951L8.09058 13.642C7.99678 12.2112 7.90257 10.144 7.90257 8.76992C7.90257 8.7322 7.90278 8.69778 7.90278 8.66108C8.14637 8.81383 9.21288 9.48419 9.21288 9.48419C11.0265 10.6581 13.7667 12.4326 15.4227 12.9013C15.5091 12.9273 15.5989 12.9069 15.663 12.8465C15.6657 12.844 15.9186 12.6835 15.9186 12.6835L15.9653 12.6643C16.0609 12.6193 16.1252 12.4588 16.1359 12.2856C17.5314 12.2151 19.479 11.6794 20.5199 10.3726C20.9237 9.86617 21.1051 9.2461 21.1051 8.71427C21.1051 8.27952 20.984 7.90414 20.7642 7.69739Z" fill="#F9A70D"/>
<path d="M25.916 2.10002H27.5474V6.66556L33.0409 2.10002H35.3533L29.547 6.70699L35.8345 12.2999H33.5256L27.5474 6.83459V12.2999H25.916V2.10002Z" fill="white"/>
<path d="M41.7862 11.142H38.5749V7.55475H41.7009C43.4976 7.55475 44.3104 8.20326 44.3104 9.3766C44.3104 10.3634 43.7813 11.142 41.7862 11.142ZM38.5749 3.26132H41.7009C43.5804 3.26132 44.0284 3.89478 44.0284 4.84136C44.0284 5.92956 43.1189 6.39626 41.8887 6.39626H38.5749V3.26132ZM43.5992 6.97427V6.9316C44.7449 6.70402 45.6075 5.85618 45.6075 4.62512C45.6075 2.89356 44.3577 2.10014 41.9695 2.10014H36.9473V12.3H42.1288C44.9036 12.3 46.0209 10.982 46.0209 9.45988C46.0209 8.24779 45.2432 7.16948 43.5992 6.97427Z" fill="white"/>
<path d="M53.8471 12.4615C52.357 12.4615 51.0709 11.8198 50.2124 10.8131L51.3052 9.75083C51.9923 10.4925 53 10.9586 53.9646 10.9586C55.395 10.9586 56.0811 10.4637 56.0811 9.47337C56.0811 8.68551 55.4822 8.29365 53.7737 7.78242C51.613 7.14113 50.5748 6.60249 50.5748 4.78023C50.5748 3.01837 52.0671 1.93945 53.9491 1.93945C55.3382 1.93945 56.3879 2.44922 57.2947 3.32469L56.2123 4.41599C55.5704 3.75944 54.8413 3.44034 53.8324 3.44034C52.6334 3.44034 52.1225 4.02329 52.1225 4.70767C52.1225 5.42276 52.5892 5.77176 54.3555 6.29638C56.3741 6.90819 57.629 7.5499 57.629 9.37072C57.629 11.208 56.4596 12.4615 53.8471 12.4615Z" fill="white"/>
<path d="M61.7215 5.84514C60.7116 5.84514 60.0971 6.54518 59.9667 7.76903H63.5311C63.4574 6.7204 62.9624 5.84514 61.7215 5.84514ZM65.0063 9.00585H59.9362C60.0971 10.4806 60.9314 11.1066 61.8653 11.1066C62.5086 11.1066 63.0202 10.8733 63.5311 10.4933L64.4208 11.4554C63.7504 12.0975 62.9479 12.4615 61.7781 12.4615C59.9822 12.4615 58.4639 11.0184 58.4639 8.48309C58.4639 5.88987 59.8343 4.48958 61.8233 4.48958C63.9975 4.48958 65.0503 6.2535 65.0503 8.32312C65.0503 8.59997 65.0202 8.84692 65.0063 9.00585Z" fill="white"/>
<path d="M71.0106 6.85027C70.3833 6.20835 69.8263 5.91832 69.1412 5.91832C68.0443 5.91832 67.3435 6.89376 67.3435 8.45258C67.3435 9.95429 67.9873 11.0328 69.1844 11.0328C69.9009 11.0328 70.3246 10.7114 70.9213 10.0848L71.887 11.0328C71.2891 11.7902 70.5271 12.4615 69.1412 12.4615C67.2706 12.4615 65.8247 10.8862 65.8247 8.49772C65.8247 5.9614 67.3148 4.48834 69.1844 4.48834C70.3096 4.48834 71.186 4.9404 71.9009 5.7868L71.0106 6.85027Z" fill="white"/>
<path d="M77.614 12.3001V11.5719C77.2368 12.1264 76.475 12.4615 75.687 12.4615C73.9058 12.4615 72.9546 11.2954 72.9546 9.03554V4.65016H74.4626V8.97782C74.4626 10.5226 75.0448 11.0759 76.0368 11.0759C77.0456 11.0759 77.614 10.3633 77.614 9.12376V4.65016H79.1188V12.3001H77.614Z" fill="white"/>
<path d="M84.7752 6.23795C84.4517 6.06397 84.1155 5.96213 83.6193 5.96213C82.6695 5.96213 82.1168 6.63188 82.1168 7.93034V12.3H80.6108V4.65007H82.1168V5.37897C82.4643 4.86837 83.1065 4.48969 83.8666 4.48969C84.4821 4.48969 84.8604 4.60636 85.1664 4.81024L84.7752 6.23795Z" fill="white"/>
<path d="M92.7939 12.1118C92.4274 12.3159 91.9156 12.4614 91.3167 12.4614C90.251 12.4614 89.5942 11.8049 89.5942 10.438V6.01941H88.4971V4.65066H89.5942V2.46415L91.0677 1.67712V4.65066H92.9664V6.01941H91.0677V10.1749C91.0677 10.8872 91.302 11.0921 91.858 11.0921C92.2507 11.0921 92.6908 10.9453 92.9664 10.7855L92.7939 12.1118Z" fill="white"/>
<path d="M100.316 5.84514C99.3081 5.84514 98.6943 6.54518 98.5633 7.76903H102.127C102.055 6.7204 101.559 5.84514 100.316 5.84514ZM103.603 9.00585H98.535C98.6943 10.4806 99.5279 11.1066 100.463 11.1066C101.107 11.1066 101.617 10.8733 102.127 10.4933L103.017 11.4554C102.349 12.0975 101.544 12.4615 100.373 12.4615C98.5777 12.4615 97.0596 11.0184 97.0596 8.48309C97.0596 5.88987 98.4308 4.48958 100.418 4.48958C102.595 4.48958 103.647 6.2535 103.647 8.32312C103.647 8.59997 103.618 8.84692 103.603 9.00585Z" fill="white"/>
<path d="M107.123 12.4615C106.086 12.4615 104.962 12.052 104.189 11.483L104.876 10.3468C105.588 10.8432 106.395 11.1056 107.108 11.1056C108.059 11.1056 108.513 10.7993 108.513 10.2604C108.513 9.67807 107.839 9.40102 106.731 8.97679C105.079 8.33652 104.481 7.78242 104.481 6.57301C104.481 5.20302 105.56 4.48855 107.093 4.48855C108.059 4.48855 109.007 4.83877 109.694 5.33474L109.036 6.48561C108.409 6.05025 107.78 5.82947 107.051 5.82947C106.32 5.82947 106 6.12198 106 6.52952C106 6.90819 106.261 7.18504 107.417 7.6371C109.125 8.29365 110 8.75993 110 10.2021C110 11.8924 108.629 12.4615 107.123 12.4615Z" fill="white"/>
<path d="M86.0552 4.64285H87.5587V12.3H86.0552V4.64285Z" fill="white"/>
<path d="M86.0552 2.10449H87.5587V3.58105H86.0552V2.10449Z" fill="white"/>
<path d="M94.355 4.64223H95.8601V12.3H94.355V4.64223Z" fill="white"/>
<path d="M94.355 2.10327H95.8601V3.57983H94.355V2.10327Z" fill="white"/>
</svg>
