<svg width="200" height="159" viewBox="0 0 200 159" fill="none" xmlns="http://www.w3.org/2000/svg">
<path fill-rule="evenodd" clip-rule="evenodd" d="M165.602 51.6748C168.694 51.6748 171.202 54.1663 171.202 57.2398C171.202 60.3133 168.694 62.8048 165.602 62.8048H133.602C136.694 62.8048 139.202 65.2963 139.202 68.3698C139.202 71.4433 136.694 73.9348 133.602 73.9348H151.202C154.294 73.9348 156.802 76.4263 156.802 79.4998C156.802 82.5733 154.294 85.0648 151.202 85.0648H143.062C139.163 85.0648 136.002 87.5563 136.002 90.6298C136.002 92.6788 137.602 94.5338 140.802 96.1948C143.894 96.1948 146.402 98.6863 146.402 101.76C146.402 104.833 143.894 107.325 140.802 107.325H74.4016C71.3088 107.325 68.8016 104.833 68.8016 101.76C68.8016 98.6863 71.3088 96.1948 74.4016 96.1948H43.2016C40.1088 96.1948 37.6016 93.7033 37.6016 90.6298C37.6016 87.5563 40.1088 85.0648 43.2016 85.0648H75.2016C78.2944 85.0648 80.8016 82.5733 80.8016 79.4998C80.8016 76.4263 78.2944 73.9348 75.2016 73.9348H55.2016C52.1088 73.9348 49.6016 71.4433 49.6016 68.3698C49.6016 65.2963 52.1088 62.8048 55.2016 62.8048H87.2016C84.1088 62.8048 81.6016 60.3133 81.6016 57.2398C81.6016 54.1663 84.1088 51.6748 87.2016 51.6748H165.602ZM165.602 73.9348C168.694 73.9348 171.202 76.4263 171.202 79.4998C171.202 82.5733 168.694 85.0648 165.602 85.0648C162.509 85.0648 160.002 82.5733 160.002 79.4998C160.002 76.4263 162.509 73.9348 165.602 73.9348Z" fill="white" fill-opacity="0.05"/>
<path fill-rule="evenodd" clip-rule="evenodd" d="M122.898 50.8799L130.374 104.846L131.046 110.26C131.263 112.004 130.018 113.591 128.265 113.804L81.4531 119.488C79.7003 119.701 78.1039 118.46 77.8873 116.716L70.6364 58.3077C70.5281 57.4357 71.1508 56.6424 72.0272 56.536C72.0328 56.5353 72.0383 56.5347 72.0438 56.5341L75.9275 56.1034M79.0749 55.7842L82.744 55.377L79.0749 55.7842Z" fill="#1C1C1C"/>
<path d="M124.136 50.7103C124.042 50.0264 123.41 49.548 122.726 49.6417C122.042 49.7354 121.565 50.3657 121.659 51.0496L124.136 50.7103ZM130.374 104.846L131.615 104.694C131.614 104.688 131.613 104.682 131.613 104.676L130.374 104.846ZM131.046 110.26L129.806 110.412L131.046 110.26ZM128.265 113.804L128.417 115.044L128.265 113.804ZM81.4531 119.488L81.6056 120.729L81.4531 119.488ZM77.8873 116.716L79.128 116.564L77.8873 116.716ZM70.6364 58.3077L71.8771 58.1556L70.6364 58.3077ZM72.0438 56.5341L72.1835 57.7762L72.0438 56.5341ZM76.0672 57.3456C76.7533 57.2695 77.2471 56.6517 77.1699 55.9657C77.0928 55.2797 76.4741 54.7852 75.7879 54.8613L76.0672 57.3456ZM78.9351 54.5421C78.249 54.6183 77.7553 55.2361 77.8325 55.9221C77.9097 56.6081 78.5285 57.1025 79.2147 57.0264L78.9351 54.5421ZM82.8837 56.6191C83.5699 56.543 84.0636 55.9251 83.9864 55.2391C83.9092 54.5531 83.2903 54.0587 82.6042 54.1349L82.8837 56.6191ZM121.659 51.0496L129.136 105.016L131.613 104.676L124.136 50.7103L121.659 51.0496ZM129.134 104.998L129.806 110.412L132.287 110.108L131.615 104.694L129.134 104.998ZM129.806 110.412C129.936 111.465 129.184 112.433 128.112 112.563L128.417 115.044C130.851 114.749 132.589 112.543 132.287 110.108L129.806 110.412ZM128.112 112.563L81.3005 118.248L81.6056 120.729L128.417 115.044L128.112 112.563ZM81.3005 118.248C80.2271 118.378 79.2589 117.618 79.128 116.564L76.6466 116.868C76.9488 119.302 79.1735 121.024 81.6056 120.729L81.3005 118.248ZM79.128 116.564L71.8771 58.1556L69.3957 58.4599L76.6466 116.868L79.128 116.564ZM71.8771 58.1556C71.8546 57.9746 71.9839 57.8004 72.1798 57.7766L71.8746 55.2953C70.3178 55.4844 69.2017 56.8967 69.3957 58.4599L71.8771 58.1556ZM72.1798 57.7766C72.181 57.7765 72.1822 57.7764 72.1835 57.7762L71.9042 55.2919C71.8943 55.293 71.8845 55.2941 71.8746 55.2953L72.1798 57.7766ZM72.1835 57.7762L76.0672 57.3456L75.7879 54.8613L71.9042 55.2919L72.1835 57.7762ZM79.2147 57.0264L82.8837 56.6191L82.6042 54.1349L78.9351 54.5421L79.2147 57.0264Z" fill="#FBAF17"/>
<path fill-rule="evenodd" clip-rule="evenodd" d="M120.91 54.2745L127.646 103.154L128.252 108.058C128.447 109.638 127.332 111.074 125.761 111.265L83.8073 116.384C82.2364 116.576 80.8047 115.451 80.6095 113.871L74.1398 61.5083C74.0043 60.4121 74.7834 59.415 75.8798 59.2812L80.6727 58.6964" fill="#2E2E2E"/>
<path d="M86.5859 43.75C86.5859 42.2312 87.8172 41 89.3359 41H124.657C125.384 41 126.08 41.2871 126.595 41.7988L136.874 52.0067C137.394 52.5229 137.686 53.2253 137.686 53.9579V102.53C137.686 104.049 136.455 105.28 134.936 105.28H89.3359C87.8172 105.28 86.5859 104.049 86.5859 102.53V43.75Z" fill="#1C1C1C" stroke="#FBAF17" stroke-width="2.5"/>
<path d="M125.336 41.6602V50.8799C125.336 52.1971 126.41 53.2649 127.736 53.2649H134.083" stroke="#FBAF17" stroke-width="2.5" stroke-linecap="round" stroke-linejoin="round"/>
<path d="M94.3984 93.8096H115.198M94.3984 53.2646H115.198H94.3984ZM94.3984 62.8046H128.798H94.3984ZM94.3984 73.1396H128.798H94.3984ZM94.3984 83.4746H128.798H94.3984Z" stroke="#FFDD99" stroke-opacity="0.6" stroke-width="2.5" stroke-linecap="round" stroke-linejoin="round"/>
</svg>
