<svg width="30" height="22" viewBox="0 0 30 22" fill="none" xmlns="http://www.w3.org/2000/svg">
<path id="Vector" d="M29.5243 11.1439L29.263 10.975C28.3761 10.0781 27.1448 9.68792 25.4977 9.78445C24.1239 9.86892 23.039 10.4199 22.2076 10.9348C22.2076 10.9227 22.2076 10.9106 22.2076 10.8986C22.2076 10.4602 22.2551 9.98958 22.3026 9.53106C22.3501 9.0645 22.4016 8.58989 22.4016 8.13941C22.4016 7.68089 22.3501 7.2465 22.1957 6.87245C22.1561 6.77592 22.069 6.71961 21.9621 6.71961C21.5187 6.73167 20.6516 7.03735 20.4417 7.22639L20.3269 7.47979C20.319 7.97853 20.2121 9.37018 20.1012 9.53911C20.1052 9.53508 20.0419 9.70803 20.0419 9.70803C19.8558 11.699 19.8518 13.4446 20.026 14.9448C20.0458 15.0936 20.3309 15.3229 20.5486 15.4033C20.7902 15.4918 21.5424 15.2867 21.9779 15.1218C21.974 15.1218 22.1442 15.0977 22.1442 15.0977C22.2828 15.0816 22.362 14.9649 22.3541 14.804C22.3541 14.8 22.362 14.3737 22.362 14.3737C22.6787 13.0786 23.9457 11.5341 25.4502 11.3008C26.2975 11.164 26.9706 11.3853 27.5011 11.9725C27.5724 12.0771 27.7268 13.0102 27.1685 14.0801C26.7528 14.8724 25.9174 15.5401 24.8207 15.9584C23.7834 16.3566 22.6391 16.5215 21.2296 16.4692C21.1742 16.429 19.9112 15.5642 19.9112 15.5642C18.7947 14.7678 17.405 13.7744 16.1459 13.2877C15.9282 13.2032 15.5283 12.8654 15.2907 12.6683L15.1601 12.5597C14.4316 11.9685 13.0537 11.0313 11.9412 10.2792C11.9412 10.2792 11.4383 9.93729 11.3433 9.87294C11.3433 9.8287 11.3473 9.74423 11.3473 9.74423C11.379 9.70803 12.0758 9.28169 12.0758 9.28169C13.0537 8.70251 13.5051 8.41694 13.6001 8.26812C13.5803 8.29225 13.7308 8.1917 13.7308 8.1917C13.7387 8.18768 16.1499 6.80005 16.1499 6.80005C18.474 5.50091 21.1069 4.02881 22.4887 2.57683C22.4926 2.57683 22.556 2.35562 22.556 2.35562L22.5877 2.15853C22.6787 1.84883 22.6827 1.6075 22.6075 1.334C22.5877 1.25356 22.5164 1.16507 22.4174 1.14496C21.3365 1.03636 19.9468 1.69599 18.6799 2.90262C18.3948 3.17613 18.1533 3.30886 17.8999 3.44963L17.7059 3.55823C16.3083 4.36667 13.1606 6.34957 11.5136 7.42348C11.6205 5.62157 11.9491 3.06351 12.3529 0.927768L12.3094 0.674375C12.3054 0.66633 12.1391 0.352606 12.1391 0.352606L12.0124 0.119323L11.9768 0.107257C11.6482 -0.0616714 11.379 0.00670449 11.185 0.0589919L10.8563 0.183677L10.4169 0.344562C10.3297 0.36065 10.2664 0.41696 10.2347 0.501424C9.44683 2.43204 8.79355 5.61353 8.63518 8.1555C7.06335 7.13791 5.60633 6.4099 4.89762 6.05596L4.87783 6.04389L4.77885 6.02378C4.52545 5.9916 4.21267 5.79854 3.9078 5.61353C3.88009 5.59342 3.30995 5.21936 3.30995 5.21936L2.39536 4.62409C2.40328 4.62811 2.15385 4.56778 2.15385 4.56778C1.76188 4.63615 1.00566 5.15098 0.783937 5.50091C0.752262 5.54917 0.744344 5.59744 0.744344 5.64972C0.744344 5.72212 0.768099 5.79854 0.783937 5.86692L0.823529 6.05596L0.867081 6.16858C1.30656 6.62308 2.4112 7.38728 3.49604 7.97853L4.75113 8.65424L6.67534 9.7201C6.67534 9.72814 7.00396 9.98556 7.00396 9.98556L7.22964 10.1183C7.22964 10.1183 7.25339 10.1344 7.26923 10.1424C6.75848 10.4883 3.77319 12.5155 3.77319 12.5155L1.93213 13.7543C1.75792 13.8749 1.02941 14.2048 0.871041 14.2691C0.471154 14.434 0.170249 14.6874 0.043552 14.9649L0 15.0776L0.0475113 15.1499L0.186086 15.2585C0.182127 15.2585 0.376131 15.3832 0.376131 15.3832L0.578054 15.524C0.582013 15.528 0.768099 15.5522 0.768099 15.5522C1.09276 15.5642 1.57183 15.3792 2.46663 14.981C3.2862 14.611 5.52319 13.2435 6.47738 12.6562L6.88518 12.4069C7.05543 12.4189 7.24152 12.2782 7.40385 12.1495C7.59389 11.9926 8.01357 11.7352 8.26697 11.6226C8.27489 11.6185 8.42138 11.5381 8.55204 11.4617C8.55204 11.5059 8.54808 11.5743 8.54808 11.5743C8.59163 14.5426 8.75792 16.6985 9.07862 18.3636L9.08258 18.3918L9.11425 18.4601C9.27262 18.6974 9.45079 19.3973 9.60916 20.0207L9.97342 21.2595C9.98133 21.2716 10.0764 21.3762 10.0764 21.3762C10.2822 21.521 10.9157 21.7663 11.3394 21.714L11.4463 21.702L11.5136 21.5491C11.5492 21.3641 11.5611 21.1831 11.5611 20.982C11.5611 20.7568 11.5452 20.5074 11.5255 20.2017L11.4977 19.7553C11.3631 17.6839 11.2285 14.6914 11.2285 12.7005C11.2285 12.6442 11.2285 12.5959 11.2285 12.5436C11.573 12.7648 13.0894 13.7342 13.0894 13.7342C15.6669 15.4355 19.5667 18.0016 21.9185 18.6814C22.0413 18.7176 22.168 18.6894 22.259 18.6009C22.263 18.5969 22.6233 18.3636 22.6233 18.3636L22.6906 18.3355C22.8252 18.2711 22.9163 18.0378 22.9321 17.7885C24.9157 17.6879 27.6872 16.9116 29.168 15.0172C29.7421 14.2852 29.9994 13.3842 29.9994 12.616C30.0113 11.9886 29.8371 11.4416 29.5243 11.1439Z" fill="#FCAF17"/>
</svg>
