<svg width="32" height="32" viewBox="0 0 32 32" fill="none" xmlns="http://www.w3.org/2000/svg">
<circle cx="16" cy="16" r="16" fill="#C62A31"/>
<path d="M15.5225 9.5459C15.6677 9.07607 16.3327 9.07607 16.4779 9.54591L17.7799 13.7591C17.8446 13.9686 18.0383 14.1115 18.2576 14.1115H22.5221C23.0003 14.1115 23.2057 14.7184 22.8256 15.0088L19.3331 17.6768C19.1666 17.804 19.0971 18.0216 19.1589 18.2218L20.4826 22.5054C20.6264 22.9705 20.0882 23.3459 19.7014 23.0504L16.3038 20.4548C16.1246 20.3179 15.8759 20.3179 15.6967 20.4548L12.299 23.0504C11.9122 23.3459 11.3741 22.9705 11.5178 22.5054L12.8415 18.2218C12.9034 18.0216 12.8339 17.804 12.6673 17.6768L9.17484 15.0088C8.79478 14.7184 9.0001 14.1115 9.47837 14.1115H13.7429C13.9621 14.1115 14.1558 13.9686 14.2206 13.7591L15.5225 9.5459Z" fill="#F9DA61"/>
</svg>
